<svg id="svg" xmlns="http://www.w3.org/2000/svg" xmlns:xlink="http://www.w3.org/1999/xlink" width="400" height="219.54887218045113" viewBox="0, 0, 400,219.54887218045113"><g id="svgg"><path id="path0" d="M318.797 9.023 C 311.117 16.702,310.841 33.401,318.282 40.135 C 325.752 46.896,337.751 46.401,344.396 39.059 C 361.362 20.312,336.582 -8.763,318.797 9.023 M336.842 24.238 C 336.842 31.275,328.391 32.056,325.783 25.260 C 323.884 20.312,330.157 14.269,334.443 16.917 C 335.762 17.733,336.842 21.027,336.842 24.238 M93.233 27.068 C 93.233 35.997,93.403 36.090,109.747 36.090 L 126.260 36.090 117.265 50.709 C 106.050 68.936,105.905 68.026,120.394 70.343 C 129.800 71.847,133.189 74.047,135.512 80.156 C 142.280 97.957,117.424 111.332,109.813 93.985 C 106.264 85.895,90.226 84.170,90.226 91.879 C 90.226 121.508,135.144 131.811,148.841 105.323 C 156.604 90.311,154.742 75.945,143.587 64.790 L 133.790 54.993 143.306 38.785 C 155.445 18.110,155.377 18.045,121.627 18.045 L 93.233 18.045 93.233 27.068 M178.978 45.053 C 153.495 95.792,170.772 136.768,210.678 120.238 C 243.099 106.809,236.995 54.135,203.018 54.135 L 192.040 54.135 201.283 37.980 C 212.622 18.161,212.624 18.045,201.534 18.045 C 193.224 18.045,191.513 20.094,178.978 45.053 M257.184 24.565 C 235.091 41.943,234.623 94.637,256.399 112.960 C 278.122 131.239,306.078 118.006,312.654 86.332 C 322.773 37.587,288.768 -0.279,257.184 24.565 M290.294 43.291 C 305.188 66.022,293.231 108.239,273.369 103.045 C 259.446 99.404,252.988 54.668,264.401 40.916 C 270.550 33.507,284.736 34.808,290.294 43.291 M48.987 75.617 C -50.045 117.060,6.425 176.977,156.391 189.577 C 213.560 194.380,210.526 193.362,210.526 207.754 C 210.526 222.129,211.434 221.750,230.949 199.223 L 245.976 181.878 228.251 159.750 L 210.526 137.622 210.526 153.022 L 210.526 168.421 194.139 168.421 C 148.298 168.421,80.310 155.089,50.726 140.298 C 16.264 123.069,16.681 107.613,52.124 88.547 C 85.491 70.598,83.232 61.286,48.987 75.617 M210.534 73.693 C 219.005 83.900,210.859 105.263,198.496 105.263 C 191.242 105.263,182.707 94.754,182.707 85.823 C 182.707 75.397,188.609 69.173,198.496 69.173 C 203.054 69.173,208.471 71.207,210.534 73.693 M327.820 73.803 C 327.820 76.171,335.802 82.139,345.559 87.064 C 399.715 114.401,380.876 136.197,281.522 161.154 L 261.654 166.145 261.654 177.809 C 261.654 184.225,261.992 189.472,262.406 189.470 C 268.030 189.439,318.138 179.321,330.581 175.704 C 416.792 150.641,423.566 97.852,343.609 74.173 C 330.081 70.167,327.820 70.114,327.820 73.803 " stroke="none" fill="#F31211" fill-rule="evenodd"></path></g></svg>