<svg id="svg" xmlns="http://www.w3.org/2000/svg" xmlns:xlink="http://www.w3.org/1999/xlink" width="400" height="532.1100917431193" viewBox="0, 0, 400,532.1100917431193"><g id="svgg"><path id="path0" d="M194.495 27.523 C 194.495 48.777,195.321 51.755,200.917 50.678 C 210.417 48.848,210.417 6.198,200.917 4.368 C 195.321 3.291,194.495 6.268,194.495 27.523 M57.492 64.832 C 48.914 73.410,74.254 106.024,85.997 101.518 C 95.150 98.006,92.771 90.567,77.827 75.974 C 63.300 61.789,61.514 60.810,57.492 64.832 M319.209 77.136 C 307.616 91.773,306.673 102.752,317.008 102.752 C 324.529 102.752,346.120 74.388,343.600 67.818 C 340.022 58.496,331.348 61.810,319.209 77.136 M166.327 93.134 C 73.103 123.631,50.271 225.043,114.734 322.297 C 129.337 344.328,142.936 365.156,144.954 368.581 C 147.315 372.587,150.915 373.925,155.046 372.333 C 164.184 368.810,163.023 361.688,151.052 347.834 C 112.635 303.375,91.152 259.549,91.178 225.688 C 91.274 100.497,241.292 63.406,295.938 175.063 C 319.746 223.709,306.972 265.831,238.967 362.917 C 234.913 368.705,219.063 377.072,192.552 387.419 C 161.028 399.723,152.039 404.783,151.121 410.740 C 148.322 428.899,241.585 392.023,255.833 369.337 C 261.086 360.972,274.273 340.561,285.137 323.978 C 317.488 274.598,321.101 264.346,321.101 221.941 C 321.101 132.766,243.245 67.972,166.327 93.134 M1.185 218.719 C -1.887 226.723,6.211 231.069,24.321 231.136 C 39.659 231.193,50.478 223.967,45.971 216.675 C 41.936 210.146,3.807 211.886,1.185 218.719 M357.432 217.980 C 353.679 227.759,359.619 231.193,380.288 231.193 C 399.160 231.193,400.432 230.641,399.338 222.936 C 397.854 212.489,361.202 208.154,357.432 217.980 M68.287 351.887 C 55.084 365.408,51.848 377.533,60.660 380.466 C 66.392 382.374,92.715 349.110,90.350 342.947 C 87.232 334.823,83.456 336.353,68.287 351.887 M312.844 340.200 C 305.689 342.846,307.304 347.970,320.183 363.483 C 332.808 378.689,344.954 382.565,344.954 371.387 C 344.954 363.101,319.023 337.915,312.844 340.200 M194.511 425.022 C 153.807 441.598,141.253 451.743,154.943 456.997 C 164.486 460.659,247.574 423.501,248.879 414.987 C 250.580 403.892,242.929 405.304,194.511 425.022 M198.165 467.238 C 153.686 485.022,150.459 486.792,150.459 493.402 C 150.459 507.515,246.597 473.949,248.879 459.039 C 250.554 448.092,242.989 449.315,198.165 467.238 M199.531 507.670 C 154.585 526.131,152.030 529.937,183.638 531.343 C 211.233 532.570,227.365 524.588,239.589 503.657 C 248.572 488.275,246.158 488.517,199.531 507.670 " stroke="none" fill="#F31211" fill-rule="evenodd"></path></g></svg>