<svg id="svg" xmlns="http://www.w3.org/2000/svg" xmlns:xlink="http://www.w3.org/1999/xlink" width="400" height="397.0149253731343" viewBox="0, 0, 400,397.0149253731343"><g id="svgg"><path id="path0" d="M344.776 3.135 C 224.004 19.171,115.463 107.338,82.967 215.803 L 79.568 227.145 97.153 244.916 C 115.289 263.243,121.263 266.107,124.385 257.972 C 125.586 254.841,121.033 248.032,110.834 237.704 L 95.474 222.151 102.882 203.247 C 143.978 98.385,246.993 23.441,360.448 15.868 L 388.060 14.025 388.042 24.177 C 387.836 142.807,302.333 263.720,190.830 303.061 L 179.852 306.934 165.411 292.273 C 150.717 277.354,140.299 273.400,140.299 282.742 C 140.299 285.563,147.305 294.966,155.868 303.637 C 166.141 314.040,169.755 319.403,166.492 319.403 C 154.297 319.403,166.849 394.954,179.272 396.330 C 204.108 399.081,261.009 318.611,248.449 298.499 C 245.797 294.253,248.381 291.434,264.834 280.616 C 341.580 230.159,394.770 135.192,399.190 40.736 C 401.269 -3.710,400.473 -4.260,344.776 3.135 M246.269 73.617 C 180.374 108.356,217.453 207.575,289.162 188.395 C 344.568 173.577,350.455 95.271,297.816 73.277 C 283.672 67.367,257.800 67.538,246.269 73.617 M297.502 89.853 C 325.570 107.200,326.250 150.652,298.738 168.858 C 266.962 189.887,228.159 171.833,224.557 134.343 C 220.888 96.160,264.584 69.509,297.502 89.853 M82.090 153.405 C 45.737 165.037,2.985 202.717,2.985 223.124 C 2.985 230.460,75.160 245.437,81.235 239.362 C 87.046 233.551,80.174 229.640,56.279 225.156 C 14.371 217.293,15.096 218.098,32.721 198.978 C 46.175 184.381,69.051 170.953,89.231 165.805 C 99.589 163.163,102.985 160.880,102.985 156.562 C 102.985 149.379,97.338 148.525,82.090 153.405 M127.612 264.901 C 85.946 306.670,82.618 311.279,91.624 314.734 C 97.780 317.097,179.730 236.955,178.387 229.885 C 176.361 219.217,166.176 226.241,127.612 264.901 M30.522 314.249 C 10.367 334.540,3.859 346.269,12.757 346.269 C 18.672 346.269,63.696 299.571,61.386 295.833 C 57.434 289.438,51.870 292.758,30.522 314.249 M229.884 323.106 C 220.819 347.336,189.733 384.866,183.775 378.774 C 182.524 377.495,173.063 324.213,174.027 323.875 C 174.357 323.759,182.015 321.159,191.045 318.097 C 200.075 315.035,213.507 309.499,220.896 305.796 C 237.227 297.609,238.504 300.068,229.884 323.106 M37.588 354.947 C 15.153 377.515,10.069 388.060,21.623 388.060 C 28.353 388.060,69.350 344.607,68.203 338.689 C 66.245 328.587,61.053 331.344,37.588 354.947 M77.991 362.305 C 57.383 383.052,52.398 393.093,61.247 396.039 C 66.586 397.816,111.494 350.316,109.468 345.035 C 106.235 336.611,100.254 339.892,77.991 362.305 " stroke="none" fill="#F31211" fill-rule="evenodd"></path></g></svg>